HIERARCHY
ROOT joint_Root
{
	OFFSET 0.0 0.0 0.0
	CHANNELS 6 Xposition Yposition Zposition Zrotation Xrotation Yrotation 
	JOINT Hips
	{
		OFFSET -0.726466 93.3139 -2.00062
		CHANNELS 6 Xposition Yposition Zposition Zrotation Xrotation Yrotation 
		JOINT Spine
		{
			OFFSET 15.7357 0.0 0.0
			CHANNELS 6 Xposition Yposition Zposition Zrotation Xrotation Yrotation 
			JOINT Chest
			{
				OFFSET 8.98455 -0.406207 0.0
				CHANNELS 6 Xposition Yposition Zposition Zrotation Xrotation Yrotation 
				JOINT Neck
				{
					OFFSET 16.3773 0.0 0.0
					CHANNELS 6 Xposition Yposition Zposition Zrotation Xrotation Yrotation 
					JOINT Head
					{
						OFFSET 6.45672 0.0 0.0
						CHANNELS 6 Xposition Yposition Zposition Zrotation Xrotation Yrotation 
						End Site
						{
							OFFSET 0.0 0.0 0.0
						}
					}
				}
				JOINT Shoulder_L
				{
					OFFSET 12.9942 -0.242716 4.98039
					CHANNELS 6 Xposition Yposition Zposition Zrotation Xrotation Yrotation 
					JOINT UpperArm_L
					{
						OFFSET 5.34809 0.0 0.0
						CHANNELS 6 Xposition Yposition Zposition Zrotation Xrotation Yrotation 
						JOINT LowerArm_L
						{
							OFFSET 24.3286 1.87007e-05 0.0
							CHANNELS 6 Xposition Yposition Zposition Zrotation Xrotation Yrotation 
							JOINT Hand_L
							{
								OFFSET 22.2916 0.0 0.0
								CHANNELS 6 Xposition Yposition Zposition Zrotation Xrotation Yrotation 
								End Site
								{
									OFFSET 0.0 0.0 0.0
								}
							}
						}
					}
				}
				JOINT Shoulder_R
				{
					OFFSET 12.9945 -0.242716 -4.98039
					CHANNELS 6 Xposition Yposition Zposition Zrotation Xrotation Yrotation 
					JOINT UpperArm_R
					{
						OFFSET -5.34813 0.0 0.0
						CHANNELS 6 Xposition Yposition Zposition Zrotation Xrotation Yrotation 
						JOINT LowerArm_R
						{
							OFFSET -24.3289 0.000322201 0.0
							CHANNELS 6 Xposition Yposition Zposition Zrotation Xrotation Yrotation 
							JOINT Hand_R
							{
								OFFSET -22.2915 -0.000108084 0.0
								CHANNELS 6 Xposition Yposition Zposition Zrotation Xrotation Yrotation 
								End Site
								{
									OFFSET 0.0 0.0 0.0
								}
							}
						}
					}
				}
			}
		}
		JOINT UpperLeg_L
		{
			OFFSET -2.19248 -6.46944 0.0
			CHANNELS 6 Xposition Yposition Zposition Zrotation Xrotation Yrotation 
			JOINT LowerLeg_L
			{
				OFFSET 39.0811 0.0 -1.23785e-05
				CHANNELS 6 Xposition Yposition Zposition Zrotation Xrotation Yrotation 
				JOINT Foot_L
				{
					OFFSET 40.9854 0.0 -1.26872e-05
					CHANNELS 6 Xposition Yposition Zposition Zrotation Xrotation Yrotation 
					JOINT Toes_L
					{
						OFFSET 11.7543 0.0 0.0
						CHANNELS 6 Xposition Yposition Zposition Zrotation Xrotation Yrotation 
						End Site
						{
							OFFSET 0.0 0.0 0.0
						}
					}
				}
			}
		}
		JOINT UpperLeg_R
		{
			OFFSET -2.19251 6.46944 0.0
			CHANNELS 6 Xposition Yposition Zposition Zrotation Xrotation Yrotation 
			JOINT LowerLeg_R
			{
				OFFSET -39.0811 -0.00228153 -0.0401928
				CHANNELS 6 Xposition Yposition Zposition Zrotation Xrotation Yrotation 
				JOINT Foot_R
				{
					OFFSET -40.9854 0.0 0.0
					CHANNELS 6 Xposition Yposition Zposition Zrotation Xrotation Yrotation 
					JOINT Toes_R
					{
						OFFSET -11.7543 0.0 0.0
						CHANNELS 6 Xposition Yposition Zposition Zrotation Xrotation Yrotation 
						End Site
						{
							OFFSET 0.0 0.0 0.0
						}
					}
				}
			}
		}
	}
}
MOTION
Frames:	8
Frame Time:	0.0333333
0.000000 0.000000 0.000000 0.000000 0.000000 -0.000000 95.677900 89.829300 182.715000 -85.622300 44.514600 -178.797000 15.735700 0.000005 -0.000001 109.282000 80.914900 -108.277000 8.984550 -0.406207 -0.000000 9.370550 5.980400 1.520180 16.377300 -0.000001 -0.000001 9.407390 8.650810 -1.928590 6.456720 -0.000001 -0.000000 3.443510 9.221860 -4.184650 12.994200 -0.242716 4.980390 -88.013100 -3.783850 -62.269700 5.348090 -0.000007 -0.000001 -68.853100 13.435900 5.907420 24.328600 0.000019 0.000005 6.116990 12.943100 -25.569400 22.291600 -0.000001 0.000005 2.770130 5.527600 -7.690200 12.994500 -0.242716 -4.980390 89.644600 1.060800 -71.476800 -5.348130 -0.000001 -0.000004 -43.064200 17.570200 -41.625200 -24.328900 0.000322 -0.000009 1.738290 2.012670 -40.849700 -22.291500 -0.000108 -0.000004 3.497190 5.534370 -7.988970 -2.192480 -6.469440 -0.000000 177.667000 -25.235200 -27.076600 39.081100 -0.000007 -0.000012 0.014114 -0.027692 27.006800 40.985400 -0.000006 -0.000013 1.747700 -3.262290 -58.953300 11.754300 -0.000000 0.000003 -0.005521 -0.066432 -19.280100 -2.192510 6.469440 -0.000001 170.682000 28.579900 -174.760000 -39.081100 -0.002282 -0.040193 0.052170 -0.096224 26.921000 -40.985400 0.000008 0.000006 -5.403400 -2.489540 -71.200600 -11.754300 -0.000006 -0.000006 -0.125093 -0.171644 -17.718900
0.000000 0.000000 0.000000 0.000000 0.000000 -0.000000 97.781700 89.091900 180.966000 -84.448600 43.428800 179.890000 15.735700 0.000005 -0.000001 111.405000 80.870600 -110.294000 8.984550 -0.406207 -0.000000 9.215320 6.641130 1.685770 16.377300 -0.000001 -0.000001 9.093940 8.470170 -1.811110 6.456720 -0.000001 -0.000000 3.399280 8.521390 -4.444450 12.994200 -0.242716 4.980390 -87.992700 -3.770220 -61.941800 5.348090 -0.000007 -0.000001 -68.789300 12.076400 6.591120 24.328600 0.000019 0.000005 6.101190 12.946600 -25.505500 22.291600 -0.000001 0.000005 3.014060 5.527460 -7.683800 12.994500 -0.242716 -4.980390 89.698500 0.907614 -71.622900 -5.348130 -0.000001 -0.000004 -42.382100 15.667900 -43.036900 -24.328900 0.000322 -0.000009 1.526880 1.689900 -42.131200 -22.291500 -0.000108 -0.000004 3.824040 5.535520 -8.040150 -2.192480 -6.469440 -0.000000 174.851000 -27.357600 -28.878900 39.081100 -0.000007 -0.000012 0.005815 -0.016157 19.794700 40.985400 -0.000006 -0.000013 4.024000 -4.106980 -58.709900 11.754300 -0.000000 0.000003 -0.005289 -0.064241 -19.190800 -2.192510 6.469440 -0.000001 170.862000 28.948100 -173.038000 -39.081100 -0.002282 -0.040193 0.030633 -0.052889 27.323600 -40.985400 0.000008 0.000006 -6.524300 -2.527790 -72.743700 -11.754300 -0.000006 -0.000006 -0.442621 -0.547684 -18.061000
0.000000 0.000000 0.000000 0.000000 0.000000 -0.000000 99.919600 88.258800 178.790000 -83.515100 42.857500 178.745000 15.735700 0.000005 -0.000001 113.480000 80.829000 -112.399000 8.984550 -0.406207 -0.000000 9.042990 7.281310 1.587030 16.377300 -0.000001 -0.000001 8.792650 8.386000 -1.656650 6.456720 -0.000001 -0.000000 3.354660 8.023810 -4.558260 12.994200 -0.242716 4.980390 -87.971000 -3.745640 -61.528300 5.348090 -0.000007 -0.000001 -68.937600 11.210100 6.950850 24.328600 0.000019 0.000005 6.138510 13.314600 -25.032500 22.291600 -0.000001 0.000005 2.946590 5.526570 -7.644590 12.994500 -0.242716 -4.980390 89.709800 0.882315 -71.793900 -5.348130 -0.000001 -0.000004 -42.228100 14.460600 -43.904000 -24.328900 0.000322 -0.000009 1.331150 1.423600 -43.110700 -22.291500 -0.000108 -0.000004 4.346040 5.536530 -8.085320 -2.192480 -6.469440 -0.000000 172.617000 -28.665500 -30.873800 39.081100 -0.000007 -0.000012 -0.014695 0.050469 16.233500 40.985400 -0.000006 -0.000013 5.493100 -6.959140 -57.716200 11.754300 -0.000000 0.000003 -0.005465 -0.065909 -19.258800 -2.192510 6.469440 -0.000001 170.991000 27.869000 -171.850000 -39.081100 -0.002282 -0.040193 0.004610 -0.002409 28.444400 -40.985400 0.000008 0.000006 -8.092890 -3.058220 -73.500500 -11.754300 -0.000006 -0.000006 -1.243190 -1.473980 -19.311600
0.000000 0.000000 0.000000 0.000000 0.000000 -0.000000 102.140000 87.404300 176.020000 -82.815300 42.911300 177.937000 15.735700 0.000005 -0.000001 115.623000 80.733700 -114.719000 8.984550 -0.406207 -0.000000 8.945780 7.982090 1.182860 16.377300 -0.000001 -0.000001 8.604790 8.387130 -1.539120 6.456720 -0.000001 -0.000000 3.240030 7.611440 -4.535380 12.994200 -0.242716 4.980390 -88.053900 -3.540740 -61.180700 5.348090 -0.000007 -0.000001 -69.075700 10.745700 7.265320 24.328600 0.000019 0.000005 6.121810 13.570300 -24.565100 22.291600 -0.000001 0.000005 2.934190 5.528210 -7.716330 12.994500 -0.242716 -4.980390 89.703900 0.911349 -71.997800 -5.348130 -0.000001 -0.000004 -42.820800 14.128300 -44.059600 -24.328900 0.000322 -0.000009 1.243930 1.301830 -43.730600 -22.291500 -0.000108 -0.000004 4.789930 5.538350 -8.167410 -2.192480 -6.469440 -0.000000 170.469000 -28.855400 -33.139500 39.081100 -0.000007 -0.000012 -0.007540 0.024518 17.092500 40.985400 -0.000006 -0.000013 13.718400 -10.422300 -56.119700 11.754300 -0.000000 0.000003 -0.005582 -0.066998 -19.303200 -2.192510 6.469440 -0.000001 170.450000 26.118600 -170.806000 -39.081100 -0.002282 -0.040193 -0.052906 0.096608 30.191300 -40.985400 0.000008 0.000006 -9.816910 -3.088950 -72.409800 -11.754300 -0.000006 -0.000006 -2.713280 -3.041700 -22.401400
0.000000 0.000000 0.000000 0.000000 0.000000 -0.000000 104.360000 86.681100 172.691000 -83.069500 43.170800 177.547000 15.735700 0.000005 -0.000001 117.080000 80.808700 -116.664000 8.984550 -0.406207 -0.000000 8.639070 8.330610 0.200979 16.377300 -0.000001 -0.000001 8.779340 8.413090 -1.445740 6.456720 -0.000001 -0.000000 3.028540 7.285430 -4.515260 12.994200 -0.242716 4.980390 -88.303900 -3.084230 -61.173200 5.348090 -0.000007 -0.000001 -69.125500 10.207500 7.786600 24.328600 0.000019 0.000005 6.325930 14.230800 -24.273300 22.291600 -0.000001 0.000005 3.045950 5.528170 -7.714590 12.994500 -0.242716 -4.980390 89.618900 1.199330 -72.369800 -5.348130 -0.000001 -0.000004 -43.755600 14.920600 -43.437600 -24.328900 0.000322 -0.000009 1.065370 1.108670 -43.894900 -22.291500 -0.000108 -0.000004 5.254340 5.541780 -8.323490 -2.192480 -6.469440 -0.000000 170.424000 -27.936100 -36.514100 39.081100 -0.000007 -0.000012 0.204291 -0.437712 25.019900 40.985400 -0.000006 -0.000013 15.606000 -8.238150 -52.136800 11.754300 -0.000000 0.000003 -0.006707 -0.077140 -19.716900 -2.192510 6.469440 -0.000001 169.022000 24.152400 -170.189000 -39.081100 -0.002282 -0.040193 -0.152305 0.248277 32.076700 -40.985400 0.000008 0.000006 -11.333800 -2.995040 -69.184900 -11.754300 -0.000006 -0.000006 -3.248520 -3.375660 -28.055800
0.000000 0.000000 0.000000 0.000000 0.000000 -0.000000 106.602000 86.094500 168.789000 -84.010200 43.679200 177.882000 15.735700 0.000005 -0.000001 117.723000 80.918900 -118.010000 8.984550 -0.406207 -0.000000 8.399970 8.408430 -1.191880 16.377300 -0.000001 -0.000001 8.772570 8.551290 -1.304620 6.456720 -0.000001 -0.000000 3.049670 7.182710 -4.482770 12.994200 -0.242716 4.980390 -88.630800 -2.491360 -61.194600 5.348090 -0.000007 -0.000001 -69.132900 9.893650 8.369780 24.328600 0.000019 0.000005 6.315540 14.277800 -24.168600 22.291600 -0.000001 0.000005 2.966580 5.531610 -7.866260 12.994500 -0.242716 -4.980390 89.463800 1.731200 -72.789000 -5.348130 -0.000001 -0.000004 -44.546400 17.088900 -42.115700 -24.328900 0.000322 -0.000009 0.506724 0.533991 -43.564900 -22.291500 -0.000108 -0.000004 5.410750 5.548240 -8.623610 -2.192480 -6.469440 -0.000000 171.991000 -24.929600 -37.587900 39.081100 -0.000007 -0.000012 0.169862 -0.271104 32.069400 40.985400 -0.000006 -0.000013 13.245500 -9.760150 -48.346800 11.754300 -0.000000 0.000003 -0.006523 -0.075520 -19.650800 -2.192510 6.469440 -0.000001 167.018000 21.249000 -169.953000 -39.081100 -0.002282 -0.040193 -0.116296 0.169191 35.253200 -40.985400 0.000008 0.000006 -12.739800 -3.330030 -66.222400 -11.754300 -0.000006 -0.000006 -0.046497 -0.285040 -28.302300
0.000000 0.000000 0.000000 0.000000 0.000000 -0.000000 109.028000 85.668200 164.537000 -84.489200 43.156500 179.462000 15.735700 0.000005 -0.000001 116.084000 80.666000 -116.857000 8.984550 -0.406207 -0.000000 9.125070 8.155370 -2.198770 16.377300 -0.000001 -0.000001 8.391670 8.387600 -1.404880 6.456720 -0.000001 -0.000000 2.913480 7.005650 -3.896080 12.994200 -0.242716 4.980390 -88.651200 -2.470260 -61.353200 5.348090 -0.000007 -0.000001 -69.716300 10.996500 7.642710 24.328600 0.000019 0.000005 6.128630 14.365500 -23.401800 22.291600 -0.000001 0.000005 2.757570 5.538340 -8.167070 12.994500 -0.242716 -4.980390 89.400500 1.932410 -72.760300 -5.348130 -0.000001 -0.000004 -46.310700 19.980600 -39.607200 -24.328900 0.000322 -0.000009 0.676290 0.724799 -43.068400 -22.291500 -0.000108 -0.000004 4.940400 5.550540 -8.731610 -2.192480 -6.469440 -0.000000 173.930000 -22.108700 -36.589000 39.081100 -0.000007 -0.000012 -0.007183 0.008287 40.928700 40.985400 -0.000006 -0.000013 10.329600 -12.633600 -55.389800 11.754300 -0.000000 0.000003 -0.005506 -0.066289 -19.274300 -2.192510 6.469440 -0.000001 165.550000 18.163000 -169.314000 -39.081100 -0.002282 -0.040193 -0.016230 0.023307 39.930600 -40.985400 0.000008 0.000006 -11.802000 -5.273510 -60.027800 -11.754300 -0.000006 -0.000006 -0.108214 -0.464494 -36.001500
0.000000 0.000000 0.000000 0.000000 0.000000 -0.000000 111.243000 85.480400 160.271000 -84.597800 42.000600 -179.289000 15.735700 0.000005 -0.000001 114.831000 80.446700 -115.788000 8.984550 -0.406207 -0.000000 9.711000 7.960180 -2.591770 16.377300 -0.000001 -0.000001 8.521730 7.850440 -1.648460 6.456720 -0.000001 -0.000000 2.872100 6.597090 -3.707250 12.994200 -0.242716 4.980390 -88.564400 -2.697740 -61.966100 5.348090 -0.000007 -0.000001 -70.825200 13.001200 5.831380 24.328600 0.000019 0.000005 6.720790 15.969400 -23.186200 22.291600 -0.000001 0.000005 2.022040 5.535310 -8.031240 12.994500 -0.242716 -4.980390 89.449000 1.758210 -72.596900 -5.348130 -0.000001 -0.000004 -48.279600 23.198700 -36.325100 -24.328900 0.000322 -0.000009 0.905436 1.013610 -41.812900 -22.291500 -0.000108 -0.000004 4.490650 5.553280 -8.861930 -2.192480 -6.469440 -0.000000 174.292000 -23.490100 -34.418400 39.081100 -0.000007 -0.000012 -0.159213 0.153314 46.081900 40.985400 -0.000006 -0.000013 9.500870 -11.173400 -61.767700 11.754300 -0.000000 0.000003 -0.002807 -0.038400 -18.138400 -2.192510 6.469440 -0.000001 164.980000 15.366700 -170.556000 -39.081100 -0.002282 -0.040193 0.146853 -0.138397 46.055500 -40.985400 0.000008 0.000006 -9.183880 -7.393160 -50.679000 -11.754300 -0.000006 -0.000006 -0.129476 -0.512488 -38.129800
